<svg xmlns="http://www.w3.org/2000/svg" xmlns:xlink="http://www.w3.org/1999/xlink">
   <symbol viewBox="0 0 173 40" id="logo">
    <path d="M2.78965 32.7802L0.289746 29.1348H2.09561L3.79365 31.7425L5.50518 29.1348H7.29756L4.79092 32.7802L7.42559 36.5873H5.6332L3.79365 33.7977L1.96084 36.5873H0.168457L2.78965 32.7802Z"/>
    <path d="M7.60078 29.1348H9.32578L10.8419 33.3597C11.071 33.9616 11.2237 34.5276 11.3001 35.0577H11.354C11.3944 34.8106 11.4686 34.5119 11.5764 34.1615C11.6842 33.8066 12.2547 32.1311 13.2879 29.1348H14.9994L11.8122 37.5778C11.2327 39.1276 10.2669 39.9025 8.91475 39.9025C8.56436 39.9025 8.22295 39.8644 7.89053 39.788V38.5347C8.12861 38.5886 8.40039 38.6155 8.70586 38.6155C9.46953 38.6155 10.0063 38.173 10.3163 37.2881L10.5926 36.5873L7.60078 29.1348Z"/>
    <path d="M23.2808 39.222H21.8051V36.5873H16.6975V39.222H15.2353V35.3609H15.8417C16.3718 34.6018 16.7918 33.6854 17.1018 32.6117C17.4162 31.5336 17.6026 30.3746 17.661 29.1348H22.1892V35.3609H23.2808V39.222ZM20.6326 35.3609V30.3477H19.0289C18.9436 31.273 18.7639 32.185 18.4898 33.0834C18.2203 33.9818 17.8901 34.741 17.4993 35.3609H20.6326Z"/>
    <path d="M31.2724 32.8476C31.2724 34.0649 30.9602 35.015 30.3357 35.6979C29.7113 36.3807 28.8421 36.7221 27.728 36.7221C27.0317 36.7221 26.4163 36.5648 25.8817 36.2504C25.3472 35.9359 24.9361 35.4845 24.6486 34.896C24.3611 34.3075 24.2174 33.6247 24.2174 32.8476C24.2174 31.6392 24.5273 30.6958 25.1473 30.0175C25.7672 29.3392 26.6409 29 27.7685 29C28.8466 29 29.7001 29.3481 30.329 30.0444C30.9579 30.7362 31.2724 31.6706 31.2724 32.8476ZM25.848 32.8476C25.848 34.5681 26.4837 35.4283 27.755 35.4283C29.0128 35.4283 29.6417 34.5681 29.6417 32.8476C29.6417 31.145 29.0083 30.2938 27.7415 30.2938C27.0767 30.2938 26.5938 30.5139 26.2928 30.9541C25.9963 31.3943 25.848 32.0255 25.848 32.8476Z"/>
    <path d="M36.7708 32.7532V29.1348H38.2465V32.7532L41.117 29.1348H42.7881L39.8569 32.7397L43.0509 36.5873H41.3057L38.2465 32.8071V36.5873H36.7708V32.8071L33.7184 36.5873H31.9799L35.1671 32.7397L32.2427 29.1348H33.9138L36.7708 32.7532Z"/>
    <path d="M47.4577 36.7221C46.2987 36.7221 45.3913 36.3852 44.7355 35.7113C44.0841 35.033 43.7584 34.1009 43.7584 32.9149C43.7584 31.6976 44.0616 30.7407 44.6681 30.0444C45.2745 29.3481 46.1078 29 47.168 29C48.1518 29 48.9289 29.2987 49.4994 29.8962C50.0699 30.4937 50.3552 31.3157 50.3552 32.3624V33.2182H45.3891C45.4115 33.9414 45.6069 34.4984 45.9753 34.8893C46.3437 35.2756 46.8625 35.4687 47.5318 35.4687C47.9721 35.4687 48.3809 35.4283 48.7582 35.3475C49.14 35.2621 49.5488 35.1229 49.9846 34.9297V36.2167C49.5982 36.4009 49.2074 36.5312 48.8121 36.6075C48.4168 36.6839 47.9653 36.7221 47.4577 36.7221ZM47.168 30.1994C46.6648 30.1994 46.2605 30.3589 45.9551 30.6778C45.6541 30.9968 45.4744 31.4617 45.416 32.0727H48.7986C48.7896 31.4572 48.6414 30.9923 48.3539 30.6778C48.0664 30.3589 47.6711 30.1994 47.168 30.1994Z"/>
    <path d="M55.1596 36.7221C54.032 36.7221 53.174 36.3941 52.5855 35.7383C52.0016 35.0779 51.7096 34.1323 51.7096 32.9015C51.7096 31.6481 52.015 30.6846 52.626 30.0107C53.2414 29.3369 54.1286 29 55.2876 29C56.0737 29 56.7812 29.146 57.4102 29.438L56.9317 30.7115C56.2624 30.451 55.7099 30.3207 55.2741 30.3207C53.9849 30.3207 53.3402 31.1765 53.3402 32.888C53.3402 33.7235 53.4997 34.3524 53.8187 34.7747C54.1421 35.1925 54.6138 35.4014 55.2337 35.4014C55.939 35.4014 56.6061 35.2262 57.235 34.8758V36.2571C56.952 36.4233 56.6487 36.5424 56.3253 36.6143C56.0063 36.6861 55.6178 36.7221 55.1596 36.7221Z"/>
    <path d="M64.5864 29.1348V30.3746H62.1606V36.5873H60.5704V30.3746H58.1446V29.1348H64.5864Z"/>
    <path d="M72.4904 31.0417C72.4904 31.9222 71.9761 32.4545 70.9474 32.6387V32.6926C71.5224 32.76 71.9626 32.9419 72.2681 33.2384C72.5735 33.5349 72.7263 33.9189 72.7263 34.3906C72.7263 35.0959 72.4567 35.6395 71.9177 36.0213C71.3831 36.3986 70.6037 36.5873 69.5795 36.5873H66.0217V29.1348H69.566C71.5156 29.1348 72.4904 29.7704 72.4904 31.0417ZM71.1023 34.2963C71.1023 33.9369 70.9631 33.6831 70.6846 33.5349C70.4061 33.3821 69.9883 33.3058 69.4313 33.3058H67.6052V35.4148H69.4717C70.5588 35.4148 71.1023 35.042 71.1023 34.2963ZM70.9069 31.1765C70.9069 30.88 70.7901 30.6666 70.5565 30.5363C70.3274 30.4016 69.9838 30.3342 69.5256 30.3342H67.6052V32.1266H69.2897C69.8198 32.1266 70.2219 32.0592 70.4959 31.9244C70.7699 31.7852 70.9069 31.5358 70.9069 31.1765Z"/>
    <path d="M77.6183 36.7221C76.4593 36.7221 75.5519 36.3852 74.896 35.7113C74.2446 35.033 73.9189 34.1009 73.9189 32.9149C73.9189 31.6976 74.2222 30.7407 74.8286 30.0444C75.4351 29.3481 76.2684 29 77.3285 29C78.3123 29 79.0895 29.2987 79.66 29.8962C80.2305 30.4937 80.5157 31.3157 80.5157 32.3624V33.2182H75.5496C75.5721 33.9414 75.7675 34.4984 76.1358 34.8893C76.5042 35.2756 77.023 35.4687 77.6924 35.4687C78.1326 35.4687 78.5414 35.4283 78.9188 35.3475C79.3006 35.2621 79.7094 35.1229 80.1451 34.9297V36.2167C79.7588 36.4009 79.368 36.5312 78.9727 36.6075C78.5773 36.6839 78.1259 36.7221 77.6183 36.7221ZM77.3285 30.1994C76.8254 30.1994 76.4211 30.3589 76.1156 30.6778C75.8147 30.9968 75.635 31.4617 75.5766 32.0727H78.9592C78.9502 31.4572 78.802 30.9923 78.5145 30.6778C78.227 30.3589 77.8316 30.1994 77.3285 30.1994Z"/>
    <path d="M83.8983 29.1348V32.1266H87.409V29.1348H88.9925V36.5873H87.409V33.3731H83.8983V36.5873H82.3148V29.1348H83.8983Z"/>
    <path d="M92.8468 29.1348V32.1266H96.3574V29.1348H97.9409V36.5873H96.3574V33.3731H92.8468V36.5873H91.2633V29.1348H92.8468Z"/>
    <path d="M104.875 36.5873L104.558 35.5496H104.504C104.145 36.0033 103.783 36.3133 103.419 36.4795C103.055 36.6412 102.588 36.7221 102.018 36.7221C101.285 36.7221 100.713 36.5244 100.299 36.1291C99.8905 35.7338 99.6861 35.1745 99.6861 34.4513C99.6861 33.6831 99.9714 33.1036 100.542 32.7128C101.112 32.322 101.982 32.1086 103.15 32.0727L104.437 32.0322V31.6347C104.437 31.1585 104.324 30.8036 104.1 30.57C103.88 30.3319 103.536 30.2129 103.069 30.2129C102.687 30.2129 102.321 30.269 101.97 30.3813C101.62 30.4937 101.283 30.6262 100.96 30.7789L100.448 29.6469C100.852 29.4357 101.294 29.2763 101.775 29.1685C102.256 29.0562 102.709 29 103.136 29C104.084 29 104.798 29.2066 105.279 29.6199C105.764 30.0332 106.007 30.6823 106.007 31.5673V36.5873H104.875ZM102.516 35.5092C103.091 35.5092 103.552 35.3497 103.898 35.0308C104.248 34.7073 104.423 34.2559 104.423 33.6764V33.0295L103.466 33.0699C102.721 33.0969 102.177 33.2227 101.836 33.4473C101.499 33.6674 101.33 34.0065 101.33 34.4647C101.33 34.7972 101.429 35.0555 101.627 35.2396C101.824 35.4193 102.121 35.5092 102.516 35.5092Z"/>
    <path d="M108.978 36.5873H107.206L109.281 33.5349C108.778 33.3911 108.383 33.1351 108.096 32.7667C107.808 32.3938 107.664 31.9334 107.664 31.3854C107.664 30.6801 107.916 30.1298 108.419 29.7345C108.922 29.3347 109.609 29.1348 110.481 29.1348H113.877V36.5873H112.287V33.7168H110.784L108.978 36.5873ZM109.207 31.3988C109.207 31.7807 109.351 32.0682 109.639 32.2613C109.931 32.45 110.321 32.5443 110.811 32.5443H112.287V30.3342H110.562C110.13 30.3342 109.796 30.4263 109.558 30.6104C109.324 30.7946 109.207 31.0574 109.207 31.3988Z"/>
    <path d="M124.544 29.1348V30.3746H121.309V36.5873H119.726V29.1348H124.544Z"/>
    <path d="M130.642 36.5873L130.325 35.5496H130.271C129.912 36.0033 129.55 36.3133 129.186 36.4795C128.822 36.6412 128.355 36.7221 127.785 36.7221C127.053 36.7221 126.48 36.5244 126.067 36.1291C125.658 35.7338 125.453 35.1745 125.453 34.4513C125.453 33.6831 125.739 33.1036 126.309 32.7128C126.88 32.322 127.749 32.1086 128.917 32.0727L130.204 32.0322V31.6347C130.204 31.1585 130.092 30.8036 129.867 30.57C129.647 30.3319 129.303 30.2129 128.836 30.2129C128.454 30.2129 128.088 30.269 127.738 30.3813C127.387 30.4937 127.05 30.6262 126.727 30.7789L126.215 29.6469C126.619 29.4357 127.062 29.2763 127.542 29.1685C128.023 29.0562 128.477 29 128.903 29C129.851 29 130.565 29.2066 131.046 29.6199C131.531 30.0332 131.774 30.6823 131.774 31.5673V36.5873H130.642ZM128.283 35.5092C128.858 35.5092 129.319 35.3497 129.665 35.0308C130.015 34.7073 130.19 34.2559 130.19 33.6764V33.0295L129.234 33.0699C128.488 33.0969 127.944 33.2227 127.603 33.4473C127.266 33.6674 127.097 34.0065 127.097 34.4647C127.097 34.7972 127.196 35.0555 127.394 35.2396C127.592 35.4193 127.888 35.5092 128.283 35.5092Z"/>
    <path d="M140.109 36.5873H138.512V30.3746H136.457C136.331 31.9738 136.16 33.2227 135.945 34.1211C135.734 35.0195 135.455 35.6754 135.109 36.0887C134.768 36.502 134.323 36.7086 133.775 36.7086C133.429 36.7086 133.139 36.6592 132.906 36.5604V35.3205C133.072 35.3834 133.238 35.4148 133.404 35.4148C133.863 35.4148 134.222 34.9005 134.483 33.8718C134.748 32.8386 134.954 31.2596 135.103 29.1348H140.109V36.5873Z"/>
    <path d="M145.634 36.7221C144.475 36.7221 143.568 36.3852 142.912 35.7113C142.261 35.033 141.935 34.1009 141.935 32.9149C141.935 31.6976 142.238 30.7407 142.845 30.0444C143.451 29.3481 144.285 29 145.345 29C146.329 29 147.106 29.2987 147.676 29.8962C148.247 30.4937 148.532 31.3157 148.532 32.3624V33.2182H143.566C143.588 33.9414 143.784 34.4984 144.152 34.8893C144.52 35.2756 145.039 35.4687 145.709 35.4687C146.149 35.4687 146.558 35.4283 146.935 35.3475C147.317 35.2621 147.726 35.1229 148.161 34.9297V36.2167C147.775 36.4009 147.384 36.5312 146.989 36.6075C146.594 36.6839 146.142 36.7221 145.634 36.7221ZM145.345 30.1994C144.842 30.1994 144.437 30.3589 144.132 30.6778C143.831 30.9968 143.651 31.4617 143.593 32.0727H146.975C146.966 31.4572 146.818 30.9923 146.531 30.6778C146.243 30.3589 145.848 30.1994 145.345 30.1994Z"/>
    <path d="M154.111 36.7221C153.168 36.7221 152.436 36.3829 151.915 35.7046H151.82C151.883 36.3335 151.915 36.7153 151.915 36.8501V39.9025H150.331V29.1348H151.611C151.647 29.274 151.721 29.6064 151.834 30.132H151.915C152.409 29.3773 153.15 29 154.138 29C155.068 29 155.791 29.3369 156.308 30.0107C156.829 30.6846 157.09 31.6302 157.09 32.8476C157.09 34.0649 156.825 35.015 156.294 35.6979C155.769 36.3807 155.041 36.7221 154.111 36.7221ZM153.727 30.2938C153.098 30.2938 152.638 30.4779 152.346 30.8463C152.058 31.2146 151.915 31.8031 151.915 32.6117V32.8476C151.915 33.755 152.058 34.4131 152.346 34.8219C152.633 35.2262 153.103 35.4283 153.754 35.4283C154.302 35.4283 154.724 35.2037 155.021 34.7545C155.317 34.3053 155.466 33.6651 155.466 32.8341C155.466 31.9985 155.317 31.3674 155.021 30.9406C154.729 30.5094 154.298 30.2938 153.727 30.2938Z"/>
    <path d="M162.184 36.7221C161.025 36.7221 160.117 36.3852 159.461 35.7113C158.81 35.033 158.484 34.1009 158.484 32.9149C158.484 31.6976 158.788 30.7407 159.394 30.0444C160 29.3481 160.834 29 161.894 29C162.878 29 163.655 29.2987 164.225 29.8962C164.796 30.4937 165.081 31.3157 165.081 32.3624V33.2182H160.115C160.137 33.9414 160.333 34.4984 160.701 34.8893C161.07 35.2756 161.588 35.4687 162.258 35.4687C162.698 35.4687 163.107 35.4283 163.484 35.3475C163.866 35.2621 164.275 35.1229 164.711 34.9297V36.2167C164.324 36.4009 163.933 36.5312 163.538 36.6075C163.143 36.6839 162.691 36.7221 162.184 36.7221ZM161.894 30.1994C161.391 30.1994 160.987 30.3589 160.681 30.6778C160.38 30.9968 160.2 31.4617 160.142 32.0727H163.525C163.516 31.4572 163.367 30.9923 163.08 30.6778C162.792 30.3589 162.397 30.1994 161.894 30.1994Z"/>
    <path d="M167.642 36.5873H165.87L167.945 33.5349C167.442 33.3911 167.046 33.1351 166.759 32.7667C166.471 32.3938 166.328 31.9334 166.328 31.3854C166.328 30.6801 166.579 30.1298 167.082 29.7345C167.586 29.3347 168.273 29.1348 169.144 29.1348H172.54V36.5873H170.95V33.7168H169.448L167.642 36.5873ZM167.871 31.3988C167.871 31.7807 168.015 32.0682 168.302 32.2613C168.594 32.45 168.985 32.5443 169.475 32.5443H170.95V30.3342H169.225C168.794 30.3342 168.459 30.4263 168.221 30.6104C167.988 30.7946 167.871 31.0574 167.871 31.3988Z"/>
    <path d="M0 21.5989H11.6611C16.2601 21.5989 18.6142 19.5161 18.6142 15.5512V15.4895C18.6142 12.5428 17.1175 10.7532 14.2334 10.244V9.96634C16.6498 9.50351 17.9126 7.92987 17.9126 5.36886V5.29173C17.9126 1.80505 15.7145 0 11.4117 0H0V21.5989ZM4.59897 8.84011V3.0547H10.0398C12.2379 3.0547 13.3292 4.01122 13.3292 5.89341V5.95512C13.3292 7.86816 12.2379 8.84011 10.0398 8.84011H4.59897ZM4.59897 18.5288V11.648H10.1801C12.5965 11.648 13.7969 12.7896 13.7969 15.0266V15.0884C13.7969 17.3717 12.5965 18.5288 10.1801 18.5288H4.59897Z"/>
    <path d="M22.9462 0V21.5989H27.4828V0H22.9462Z"/>
    <path d="M36.9751 22C40.6387 22 43.3046 20.3801 44.2867 17.6339L44.5985 17.7111C44.0061 20.7041 44.6297 22 48.2153 22C48.6674 22 49.1195 21.9537 49.4937 21.892L50.0237 19.223L49.2443 19.2076C48.3868 19.1921 48.1374 18.9916 48.1374 17.8962V10.4755C48.1374 6.80365 45.6742 5.04488 40.4205 5.04488C34.8393 5.04488 32.0176 7.2202 32.2514 10.9846L36.7257 11.3548C36.5386 8.87097 37.817 7.74474 40.3269 7.74474C42.5718 7.74474 43.6319 8.56241 43.6319 10.4292V11.3394L39.2045 12.1417C34.777 12.9593 31.8461 14.3478 31.8461 17.7419V17.7882C31.8461 20.4727 33.6857 22 36.9751 22ZM38.7835 19.007C37.2557 19.007 36.4295 18.467 36.4295 17.3562V17.3254C36.4295 15.7363 37.8793 15.0884 40.7478 14.533L43.6319 13.9776V14.7335C43.6319 17.2174 41.3714 19.007 38.7835 19.007Z"/>
    <path d="M53.8414 21.5989H58.378V14.0701C58.378 10.4292 60.1084 8.17672 62.9769 8.17672C65.1127 8.17672 66.1728 9.27209 66.1728 11.3703V21.5989H70.7095V10.2903C70.7095 6.89621 68.6984 5.10659 64.9568 5.10659C61.5583 5.10659 59.2354 6.58766 57.8635 9.67321L57.5517 9.53436C58.1753 7.69846 58.3936 6.60309 58.3936 5.39972H53.8414V21.5989Z"/>
    <path d="M84.2083 21.9846C89.5556 21.9846 92.5488 19.8555 93.0009 15.7363L88.4175 15.2272C88.2305 17.8191 86.7962 19.1304 84.2239 19.1304C81.3398 19.1304 79.8432 17.3408 79.8432 13.8079V13.0519C79.8432 9.59607 81.3554 7.85273 84.1771 7.85273C86.7806 7.85273 88.1369 9.28752 88.3396 12.1571L92.8606 11.648C92.502 7.28191 89.618 5.01403 84.1927 5.01403C78.2998 5.01403 75.1974 7.86816 75.1974 13.3296V13.5302C75.1974 19.0842 78.2686 21.9846 84.2083 21.9846Z"/>
    <path d="M97.5201 21.5989H102.057V14.0701C102.057 10.4292 103.772 8.19215 106.656 8.19215C108.791 8.19215 109.852 9.27209 109.852 11.3703V21.5989H114.388V10.2903C114.388 6.89621 112.362 5.10659 108.636 5.10659C105.206 5.10659 102.899 6.58766 101.542 9.65778L101.215 9.53436C101.823 7.80645 102.041 6.52595 102.057 4.9986V0H97.5201V21.5989Z"/>
    <path d="M123.803 22C127.466 22 130.132 20.3801 131.114 17.6339L131.426 17.7111C130.833 20.7041 131.457 22 135.043 22C135.495 22 135.947 21.9537 136.321 21.892L136.851 19.223L136.072 19.2076C135.214 19.1921 134.965 18.9916 134.965 17.8962V10.4755C134.965 6.80365 132.502 5.04488 127.248 5.04488C121.667 5.04488 118.845 7.2202 119.079 10.9846L123.553 11.3548C123.366 8.87097 124.644 7.74474 127.154 7.74474C129.399 7.74474 130.459 8.56241 130.459 10.4292V11.3394L126.032 12.1417C121.604 12.9593 118.673 14.3478 118.673 17.7419V17.7882C118.673 20.4727 120.513 22 123.803 22ZM125.611 19.007C124.083 19.007 123.257 18.467 123.257 17.3562V17.3254C123.257 15.7363 124.707 15.0884 127.575 14.533L130.459 13.9776V14.7335C130.459 17.2174 128.199 19.007 125.611 19.007Z"/>
    <path d="M140.669 21.5989H145.205V14.8261C145.205 10.5989 146.53 9.04067 149.991 8.79383L152.221 8.62412L151.691 4.8906C148.027 5.1683 146.328 6.30996 144.644 9.67321L144.348 9.53436C145.081 7.37447 145.252 6.51052 145.221 5.39972H140.669V21.5989Z"/>
    <path d="M162.243 21.892C165.61 21.892 167.809 20.3492 168.915 17.5568L169.243 17.6648C168.713 19.3619 168.432 20.7041 168.417 21.5989H173V0H168.463V4.39691C168.463 6.09397 168.697 7.46704 169.258 9.3338L168.947 9.45722C167.84 6.68022 165.626 5.07574 162.243 5.07574C157.566 5.07574 155.103 7.89902 155.103 13.2987V13.6844C155.103 19.0687 157.566 21.892 162.243 21.892ZM163.958 19.115C161.152 19.115 159.686 17.3408 159.686 13.8387V13.129C159.686 9.6115 161.152 7.82188 163.958 7.82188C166.889 7.82188 168.463 9.70407 168.463 13.2062V13.7616C168.463 17.2482 166.889 19.115 163.958 19.115Z"/>
  </symbol>
  <symbol viewBox="0 0 13 13" id="login">
    <path d="M5.12056 9.09278L6.13889 10.1111L9.75 6.5L6.13889 2.88889L5.12056 3.90722L6.98389 5.77778H0V7.22222H6.98389L5.12056 9.09278ZM11.5556 0H1.44444C0.642778 0 0 0.65 0 1.44444V4.33333H1.44444V1.44444H11.5556V11.5556H1.44444V8.66667H0V11.5556C0 12.35 0.642778 13 1.44444 13H11.5556C12.35 13 13 12.35 13 11.5556V1.44444C13 0.65 12.35 0 11.5556 0Z"/>
  </symbol>
  <symbol fill="none" viewBox="0 0 12 7" id="arrow">
    <path d="M11 1L6 6L1 1"/>
  </symbol>
  <symbol viewBox="0 0 23 22" id="search">
    <rect width="6.8678" height="1.71695" transform="matrix(-0.718931 0.695081 0.718931 0.695081 4.9375 15.6534)" ></rect>
    <path fill-rule="evenodd" clip-rule="evenodd" d="M12.0967 18C7.53016 18 3.99668 14.3229 3.99668 10C3.99668 5.67715 7.53016 2 12.0967 2C16.6632 2 20.1967 5.67715 20.1967 10C20.1967 14.3229 16.6632 18 12.0967 18ZM12.0967 20C6.57383 20 2.09668 15.5228 2.09668 10C2.09668 4.47715 6.57383 0 12.0967 0C17.6195 0 22.0967 4.47715 22.0967 10C22.0967 15.5228 17.6195 20 12.0967 20Z" ></path>
  </symbol>
  <symbol viewBox="0 0 23 23" id="searchbar-close">
    <rect width="29.567" height="2.9567" transform="matrix(0.707093 0.707121 -0.707093 0.707121 2.09375 0)" />
    <rect width="29.567" height="2.9567" transform="matrix(0.707093 -0.707121 0.707093 0.707121 0 20.9074)" />
  </symbol>
  <symbol viewBox="0 0 16 16" id="modal-close">
    <path fill-rule="evenodd" clip-rule="evenodd" d="M0.666641 15.3043L15.3333 3.17761e-05L16 0.695679L1.33331 15.9999L0.666641 15.3043Z"/>
    <path fill-rule="evenodd" clip-rule="evenodd" d="M0.666725 -2.96187e-06L15.3334 15.3042L14.6667 15.9999L5.76143e-05 0.695644L0.666725 -2.96187e-06Z"/>
  </symbol>
  <symbol viewBox="0 0 285 268" id="x-painter">
    <path d="M70.6406 262H67.418L63.1289 254.992L58.8047 262H55.8047L61.4883 253.117L56.168 244.867H59.2852L63.2461 251.348L67.207 244.867H70.2305L64.875 253.164L70.6406 262ZM77.8828 256.668V254.441H99.9609V256.668H77.8828ZM122.039 262H118.816L114.527 254.992L110.203 262H107.203L112.887 253.117L107.566 244.867H110.684L114.645 251.348L118.605 244.867H121.629L116.273 253.164L122.039 262ZM122.086 249.039H125.086L127.723 256.387C128.121 257.434 128.387 258.418 128.52 259.34H128.613C128.684 258.91 128.812 258.391 129 257.781C129.188 257.164 130.18 254.25 131.977 249.039H134.953L129.41 263.723C128.402 266.418 126.723 267.766 124.371 267.766C123.762 267.766 123.168 267.699 122.59 267.566V265.387C123.004 265.48 123.477 265.527 124.008 265.527C125.336 265.527 126.27 264.758 126.809 263.219L127.289 262L122.086 249.039ZM149.355 266.582H146.789V262H137.906V266.582H135.363V259.867H136.418C137.34 258.547 138.07 256.953 138.609 255.086C139.156 253.211 139.48 251.195 139.582 249.039H147.457V259.867H149.355V266.582ZM144.75 259.867V251.148H141.961C141.812 252.758 141.5 254.344 141.023 255.906C140.555 257.469 139.98 258.789 139.301 259.867H144.75ZM163.254 255.496C163.254 257.613 162.711 259.266 161.625 260.453C160.539 261.641 159.027 262.234 157.09 262.234C155.879 262.234 154.809 261.961 153.879 261.414C152.949 260.867 152.234 260.082 151.734 259.059C151.234 258.035 150.984 256.848 150.984 255.496C150.984 253.395 151.523 251.754 152.602 250.574C153.68 249.395 155.199 248.805 157.16 248.805C159.035 248.805 160.52 249.41 161.613 250.621C162.707 251.824 163.254 253.449 163.254 255.496ZM153.82 255.496C153.82 258.488 154.926 259.984 157.137 259.984C159.324 259.984 160.418 258.488 160.418 255.496C160.418 252.535 159.316 251.055 157.113 251.055C155.957 251.055 155.117 251.438 154.594 252.203C154.078 252.969 153.82 254.066 153.82 255.496ZM172.816 255.332V249.039H175.383V255.332L180.375 249.039H183.281L178.184 255.309L183.738 262H180.703L175.383 255.426V262H172.816V255.426L167.508 262H164.484L170.027 255.309L164.941 249.039H167.848L172.816 255.332ZM188.496 249.039V254.242H194.602V249.039H197.355V262H194.602V256.41H188.496V262H185.742V249.039H188.496ZM203.941 249.039V255.684C203.941 256.457 203.879 257.594 203.754 259.094L210.258 249.039H213.621V262H210.973V255.473C210.973 255.113 210.992 254.531 211.031 253.727C211.078 252.922 211.117 252.336 211.148 251.969L204.668 262H201.305V249.039H203.941ZM225.586 249.039H228.609L223.254 255.285L229.066 262H225.902L220.301 255.426V262H217.547V249.039H220.301V255.332L225.586 249.039Z" fill="#666666"/>
    <path d="M64.7355 46.8043C70.8078 46.8043 75.7488 41.8632 75.7488 35.7909C75.7488 29.7186 70.8078 24.7776 64.7355 24.7776C58.6632 24.7776 53.7222 29.7186 53.7222 35.7909C53.7222 41.8632 58.6632 46.8043 64.7355 46.8043ZM64.7355 31.0709C67.3386 31.0709 69.4555 33.1878 69.4555 35.7909C69.4555 38.394 67.3386 40.5109 64.7355 40.5109C62.1324 40.5109 60.0155 38.394 60.0155 35.7909C60.0155 33.1878 62.1332 31.0709 64.7355 31.0709Z"/>
    <path d="M207.909 89.2843C207.909 95.3566 212.85 100.298 218.922 100.298C224.994 100.298 229.935 95.3566 229.935 89.2843C229.935 83.212 224.994 78.271 218.922 78.271C212.85 78.271 207.909 83.212 207.909 89.2843ZM218.922 84.5643C221.525 84.5643 223.642 86.6812 223.642 89.2843C223.642 91.8874 221.525 94.0043 218.922 94.0043C216.319 94.0043 214.202 91.8874 214.202 89.2843C214.202 86.6812 216.32 84.5643 218.922 84.5643Z"/>
    <path d="M231.509 55.0872C233.476 55.0872 235.071 53.492 235.071 51.5244C235.071 49.5567 233.476 47.9615 231.509 47.9615C229.541 47.9615 227.946 49.5567 227.946 51.5244C227.946 53.492 229.541 55.0872 231.509 55.0872Z"/>
    <path d="M80.4686 67.6738C82.4363 67.6738 84.0314 66.0787 84.0314 64.111C84.0314 62.1433 82.4363 60.5482 80.4686 60.5482C78.5009 60.5482 76.9058 62.1433 76.9058 64.111C76.9058 66.0787 78.5009 67.6738 80.4686 67.6738Z"/>
    <path d="M196.757 40.6495C197.371 41.2639 198.177 41.5714 198.982 41.5714C199.786 41.5714 200.592 41.2639 201.206 40.6495L204.762 37.0937L208.318 40.6495C208.932 41.2639 209.738 41.5714 210.543 41.5714C211.347 41.5714 212.153 41.2639 212.767 40.6495C213.996 39.4207 213.996 37.4289 212.767 36.2001L209.212 32.6444L212.767 29.0886C213.996 27.8598 213.996 25.868 212.767 24.6392C211.538 23.4105 209.547 23.4105 208.318 24.6392L204.762 28.195L201.206 24.6392C199.978 23.4105 197.986 23.4105 196.757 24.6392C195.528 25.868 195.528 27.8598 196.757 29.0886L200.313 32.6444L196.757 36.2001C195.528 37.4289 195.528 39.4199 196.757 40.6495Z"/>
    <path d="M52.01 106.729C52.6243 107.344 53.4299 107.651 54.2347 107.651C55.0394 107.651 55.845 107.344 56.4593 106.729L60.0151 103.174L63.5708 106.729C64.1852 107.344 64.9907 107.651 65.7955 107.651C66.6003 107.651 67.4058 107.344 68.0202 106.729C69.249 105.501 69.249 103.509 68.0202 102.28L64.4645 98.7243L68.0202 95.1686C69.249 93.9398 69.249 91.948 68.0202 90.7192C66.7914 89.4904 64.7996 89.4904 63.5708 90.7192L60.0151 94.2749L56.4593 90.7192C55.2306 89.4904 53.2387 89.4904 52.01 90.7192C50.7812 91.948 50.7812 93.9398 52.01 95.1686L55.5657 98.7243L52.01 102.28C50.7812 103.509 50.7812 105.5 52.01 106.729Z"/>
    <path d="M159.135 108.164C160.873 108.164 162.282 106.755 162.282 105.018C162.282 103.28 160.873 101.871 159.135 101.871C157.398 101.871 155.989 103.28 155.989 105.018C155.989 106.755 157.398 108.164 159.135 108.164Z"/>
    <path d="M127.669 108.164C129.406 108.164 130.815 106.755 130.815 105.018C130.815 103.28 129.406 101.871 127.669 101.871C125.931 101.871 124.522 103.28 124.522 105.018C124.522 106.755 125.931 108.164 127.669 108.164Z"/>
    <path d="M230.249 155.994C226.258 152.998 225.923 148.158 225.536 142.557C224.93 133.823 224.177 122.958 206.726 120.775C197.833 119.672 189.017 122.521 181.888 128.811C175.963 134.044 171.779 141.182 169.829 148.901L157.563 143.328V140.789C157.563 140.76 157.547 140.735 157.546 140.706C169.589 134.952 178.745 124.23 182.46 111.305C184.553 111.36 186.479 110.797 188.381 109.612C191.301 107.79 193.277 104.827 193.664 101.681C194.054 98.5277 193.077 95.366 190.991 93.0029C189.556 91.3832 187.694 90.237 185.647 89.6753C185.641 89.1223 185.619 87.1116 185.611 86.9023C185.769 86.5247 185.884 72.8768 185.884 72.8768C186.612 72.7903 187.322 72.6581 187.992 72.4261C190.352 71.6119 192.153 69.9402 193.339 67.4606H193.342C197.436 58.9064 190.121 46.7878 176.223 37.4579C177.197 34.9925 177.299 32.3037 176.411 29.7832C175.43 27.0086 173.433 24.7808 170.781 23.5111C168.129 22.2359 165.142 22.0762 162.362 23.0533C159.838 23.9446 157.806 25.7083 156.497 28.0101C140.517 23.0297 126.489 24.9256 122.389 33.4798C121.467 35.4071 121.268 37.421 121.715 39.3711C108.248 45.5284 100.869 57.1694 100.925 72.3616L100.965 77.5575C100.996 80.498 101.074 86.0071 101.132 86.2533C101.131 86.2989 101.164 88.8997 101.164 89.6682C99.2716 90.1811 97.5473 91.1983 96.1462 92.6489C94.0537 94.8217 92.9594 97.6796 93.0672 100.697C93.1836 104.064 95.0952 107.316 98.1742 109.393C100.12 110.705 102.071 111.347 104.191 111.313C107.482 123.338 115.464 133.428 126.113 139.555C126.112 139.581 126.098 139.603 126.098 139.63V143.327L101.02 154.724C89.4934 159.963 82.0444 171.671 82.0444 184.547V210.429C82.0444 212.169 83.4518 213.576 85.1911 213.576H198.471C200.21 213.576 201.618 212.169 201.618 210.429V195.941C203.168 196.136 204.736 196.269 206.338 196.269C220.237 196.269 234.974 187.275 238.523 176.63C239.959 172.318 240.795 163.904 230.249 155.994ZM164.452 28.991C165.644 28.5733 166.923 28.6465 168.056 29.1846C169.949 30.0932 170.939 32.1015 170.674 34.0745C169.386 33.3657 168.066 32.6758 166.698 32.0205C165.342 31.3715 163.99 30.7791 162.642 30.2245C163.151 29.6904 163.737 29.242 164.452 28.991ZM128.062 36.1969C129.479 33.2438 133.901 31.5257 140.102 31.5257C146.583 31.5257 155.009 33.4003 163.981 37.6963C181.54 46.1097 190.553 58.7027 187.662 64.7443C187.084 65.9518 186.435 66.305 185.935 66.4804C182.272 67.7344 173.585 63.4352 164.366 58.8875C162.101 57.7689 159.726 56.5952 157.243 55.4057C154.806 54.2383 152.391 53.1165 150.049 52.0286C139.886 47.3054 129.383 42.4194 127.893 38.2682C127.648 37.5822 127.696 36.9616 128.062 36.1969ZM124.913 44.8204C129.327 49.3272 137.566 53.1661 147.394 57.7351C149.717 58.8136 152.11 59.9259 154.526 61.0847C156.984 62.2615 159.338 63.4234 161.581 64.5295C168.723 68.0569 174.654 70.9778 179.589 72.2672V84.1655C170.173 91.2455 159.526 93.928 149.462 91.7277C140.439 89.7579 132.958 84.0396 128.938 76.0408C128.48 75.1314 127.61 74.4981 126.605 74.3447C125.594 74.1819 124.577 74.5288 123.87 75.2604C119.811 79.4392 113.883 81.9502 107.292 82.3617C107.289 80.8434 107.27 79.1906 107.255 77.4969L107.215 72.3372C107.156 56.1208 116.618 48.443 124.913 44.8204ZM109.646 107.089C109.465 106.207 108.915 105.445 108.134 104.993C107.354 104.545 106.416 104.458 105.559 104.738C104.343 105.153 103.218 105.209 101.694 104.176C100.299 103.236 99.4014 101.816 99.3519 100.473C99.3055 99.1767 99.7759 97.9502 100.673 97.0188C101.571 96.0906 102.775 95.5777 104.069 95.5777C104.92 95.5777 105.768 95.215 106.361 94.6069C107.235 93.7085 107.505 92.9376 107.451 88.6432C114.182 88.2656 120.427 86.07 125.321 82.3522C130.468 90.222 138.584 95.7964 148.119 97.8763C150.872 98.4789 153.653 98.777 156.44 98.777C164.267 98.7747 172.115 96.3919 179.421 91.8552C179.541 93.2932 179.828 93.9815 180.464 94.625C181.054 95.2244 181.893 95.5777 182.735 95.5777C184.088 95.5777 185.378 96.1582 186.272 97.1722C187.182 98.1988 187.588 99.5259 187.418 100.912C187.259 102.19 186.374 103.444 185.052 104.271C183.724 105.098 182.6 105.224 181.177 104.723C180.329 104.412 179.386 104.502 178.599 104.937C177.809 105.377 177.247 106.136 177.053 107.018C173.989 121.086 163.591 132.579 149.913 137.01L148.524 137.465C144.612 138.733 140.614 138.78 136.97 137.603C123.057 133.126 112.587 121.433 109.646 107.089ZM135.041 143.595C137.425 144.364 139.905 144.744 142.422 144.744C145.093 144.744 147.8 144.314 150.467 143.45L151.27 143.188V144.351C151.27 149.556 147.035 153.791 141.83 153.791C136.624 153.791 132.39 149.556 132.39 144.351V142.552C133.274 142.898 134.129 143.302 135.041 143.595ZM195.322 207.284H176.442V191.551C176.442 189.812 175.035 188.404 173.295 188.404C171.556 188.404 170.149 189.812 170.149 191.551V207.284H110.362V191.551C110.362 189.812 108.955 188.404 107.215 188.404C105.476 188.404 104.069 189.812 104.069 191.551V207.284H88.3354V184.548C88.3354 174.134 94.3369 164.675 103.623 160.453L127.118 149.776C129.339 155.774 135.068 160.084 141.829 160.084C148.59 160.084 154.319 155.774 156.539 149.775L168.75 155.323C168.662 156.384 168.575 157.445 168.575 158.511C168.575 175.502 179.858 189.897 195.322 194.623V207.284ZM232.55 174.641C229.874 182.667 217.379 189.978 206.335 189.978C188.985 189.978 174.869 175.861 174.869 158.511C174.869 149.05 179.051 139.711 186.054 133.531C191.008 129.158 196.929 126.835 202.989 126.835C203.972 126.835 204.959 126.896 205.945 127.019C218.258 128.559 218.677 134.612 219.257 142.989C219.688 149.231 220.176 156.304 226.476 161.028C232.108 165.253 234.152 169.835 232.55 174.641Z"/>
    <path d="M218.922 161.787C213.787 161.787 209.611 165.963 209.611 171.098C209.611 176.229 213.787 180.405 218.922 180.405C224.056 180.405 228.233 176.229 228.233 171.098C228.233 165.963 224.057 161.787 218.922 161.787ZM218.922 174.112C217.26 174.112 215.904 172.76 215.904 171.098C215.904 169.435 217.26 168.08 218.922 168.08C220.584 168.08 221.939 169.435 221.939 171.098C221.939 172.76 220.584 174.112 218.922 174.112Z"/>
    <path d="M200.042 131.396C195.5 131.396 191.806 135.089 191.806 139.631C191.806 144.173 195.5 147.867 200.042 147.867C204.584 147.867 208.277 144.173 208.277 139.631C208.277 135.089 204.584 131.396 200.042 131.396ZM200.042 141.573C198.973 141.573 198.099 140.701 198.099 139.631C198.099 138.561 198.972 137.689 200.042 137.689C201.112 137.689 201.984 138.561 201.984 139.631C201.984 140.701 201.112 141.573 200.042 141.573Z"/>
    <path d="M194.118 156.938C194.118 152.396 190.424 148.702 185.882 148.702C181.34 148.702 177.646 152.395 177.646 156.938C177.646 161.48 181.34 165.173 185.882 165.173C190.424 165.173 194.118 161.48 194.118 156.938ZM185.882 158.88C184.813 158.88 183.94 158.007 183.94 156.938C183.94 155.868 184.812 154.995 185.882 154.995C186.952 154.995 187.824 155.868 187.824 156.938C187.824 158.007 186.952 158.88 185.882 158.88Z"/>
    <path d="M196.895 169.155C192.354 169.155 188.66 172.849 188.66 177.391C188.66 181.933 192.353 185.626 196.895 185.626C201.437 185.626 205.131 181.933 205.131 177.391C205.131 172.849 201.437 169.155 196.895 169.155ZM196.895 179.333C195.826 179.333 194.953 178.461 194.953 177.391C194.953 176.321 195.825 175.449 196.895 175.449C197.965 175.449 198.838 176.321 198.838 177.391C198.838 178.461 197.965 179.333 196.895 179.333Z"/>
    <path d="M73.3028 136.131C72.7191 135.554 72.126 134.967 71.5486 134.361C71.5478 134.36 71.547 134.36 71.547 134.359C71.5462 134.359 71.5462 134.359 71.5462 134.358C69.1343 131.835 67.5271 129.536 67.5271 126.528C67.5271 122.53 65.4527 121.433 64.2145 121.136C59.3073 119.894 53.5607 129.525 50.5737 135.348C48.7793 138.847 46.6372 143.746 46.6372 147.209C46.6372 153.315 50.0049 158.599 54.9444 161.459L53.1241 201.882C52.9762 205.148 54.12 208.308 56.2613 210.545C58.1296 212.502 60.5817 213.578 63.1627 213.578C65.7438 213.578 68.1958 212.502 70.0641 210.545C72.2062 208.308 73.3493 205.149 73.2014 201.882L71.381 161.459C76.3205 158.598 79.689 153.314 79.689 147.209C79.6882 142.455 76.2953 139.094 73.3028 136.131ZM61.5642 129.622C62.1479 132.256 63.4294 134.447 64.9138 136.333C63.8015 137.16 62.7041 137.596 61.6319 137.639C60.1875 137.633 58.6205 136.966 57.3422 136.041C58.8659 133.334 60.363 131.15 61.5642 129.622ZM66.9143 202.165C66.9851 203.722 66.4746 205.195 65.5164 206.196C65.0428 206.694 64.2475 207.284 63.1627 207.284C62.0779 207.284 61.2818 206.694 60.809 206.196C59.8501 205.195 59.3403 203.722 59.4111 202.165L61.1504 163.531C61.8175 163.613 62.4736 163.735 63.1627 163.735C63.8518 163.735 64.5079 163.614 65.175 163.531L66.9143 202.165ZM63.1619 157.442C57.52 157.442 52.929 152.851 52.929 147.209C52.929 146.317 53.3962 144.42 54.5495 141.686C56.8151 143.136 59.12 143.936 61.447 143.936C61.5886 143.936 61.7294 143.932 61.8742 143.926C64.4513 143.827 66.9088 142.815 69.2161 140.941C71.4904 143.2 73.3949 145.181 73.3949 147.208C73.3949 152.851 68.8039 157.442 63.1619 157.442Z"/>
  </symbol>

  <symbol viewBox="0 0 2 10" id="tooltip">
    <path d="M0.261539 3.4551H1.73846V10H0.261539V3.4551ZM1 1.90259C0.712821 1.90259 0.471795 1.81126 0.276924 1.62861C0.0923081 1.44597 0 1.22273 0 0.958904C0 0.695079 0.0923081 0.471841 0.276924 0.289193C0.471795 0.0963976 0.712821 0 1 0C1.28718 0 1.52308 0.0913239 1.70769 0.273972C1.90256 0.446473 2 0.664636 2 0.928462C2 1.20243 1.90256 1.43582 1.70769 1.62861C1.52308 1.81126 1.28718 1.90259 1 1.90259Z"></path>
  </symbol>
  <symbol viewBox="0 0 23 19" id="telegram">
    <path fill-rule="evenodd" clip-rule="evenodd" d="M2.05321 7.7889L13.7168 2.7649C19.2711 0.454701 20.4251 0.0534209 21.1774 0.0401809C21.3429 0.0372609 21.7128 0.0782604 21.9524 0.2727C22.1548 0.436861 22.2104 0.658701 22.2371 0.814301C22.2637 0.969901 22.2969 1.32458 22.2705 1.60166C21.9695 4.76406 20.6671 12.4386 20.0046 15.9806C19.7242 17.4794 19.1726 17.9819 18.6378 18.0311C17.4763 18.138 16.5944 17.2635 15.4694 16.5261L11.0061 13.528C9.03145 12.2268 10.3115 11.5116 11.4369 10.3428C11.7314 10.0368 16.8487 5.38226 16.9477 4.96002C16.9597 4.90722 16.9716 4.71042 16.8547 4.60642C16.7377 4.50242 16.565 4.53842 16.4405 4.5663C16.264 4.60638 13.452 6.46502 8.00445 10.1423C7.20625 10.6904 6.48325 10.9575 5.83553 10.9435C5.12141 10.9281 3.74777 10.5397 2.72661 10.2078C1.47408 9.80066 0.478605 9.58538 0.565325 8.89394C0.610445 8.53382 1.1064 8.16554 2.05317 7.78898L2.05321 7.7889Z" fill="white"/>
  </symbol>
  <symbol viewBox="0 0 23 23" id="whatsapp">
    <path d="M16.875 13.751C16.625 13.626 15.3125 12.876 15.0625 12.8135C14.8125 12.6885 14.625 12.6885 14.4375 12.9385C14.25 13.1885 13.6875 13.8135 13.5625 13.9385C13.375 14.126 13.25 14.126 13 14.001C12.75 13.876 11.875 13.5635 10.875 12.5635C10.125 11.8135 9.5625 10.9385 9.4375 10.626C9.3125 10.376 9.4375 10.1885 9.5625 10.0635C9.6875 9.93848 9.8125 9.75098 10 9.62598C10.1875 9.50098 10.1875 9.37598 10.3125 9.18848C10.4375 9.00098 10.375 8.87598 10.3125 8.68848C10.25 8.50098 9.75 7.18848 9.5625 6.62598C9.375 6.06348 9.125 6.18848 9 6.12598C8.8125 6.12598 8.6875 6.06348 8.5 6.06348C8.25 6.06348 7.9375 6.18848 7.75 6.37598C7.5 6.62598 6.75 7.25098 6.75 8.56348C6.75 9.87598 7.625 11.251 7.75 11.376C7.875 11.5635 9.5 14.4385 12.1875 15.626C14.875 16.8135 14.875 16.4385 15.375 16.4385C15.875 16.4385 17 15.8135 17.25 15.251C17.5 14.626 17.5 14.0635 17.4375 14.001C17.3125 14.001 17.125 13.9385 16.875 13.751ZM11.875 20.1885C10.125 20.1885 8.5 19.6885 7.0625 18.751L3.6875 19.8135L4.8125 16.5635C3.75 15.0635 3.125 13.251 3.125 11.376C3.125 6.50098 7.0625 2.56348 11.9375 2.56348C16.8125 2.56348 20.6875 6.50098 20.6875 11.376C20.6875 16.251 16.75 20.1885 11.875 20.1885ZM11.875 0.813477C6.0625 0.813477 1.3125 5.56348 1.3125 11.376C1.3125 13.3135 1.8125 15.1885 2.8125 16.8135L0.875 22.501L6.75 20.626C8.3125 21.501 10.0625 21.9385 11.875 21.9385C17.6875 21.9385 22.4375 17.1885 22.4375 11.376C22.4375 5.56348 17.75 0.813477 11.875 0.813477Z" fill="white"/>
  </symbol>
  <symbol viewBox="0 0 45 45" id="vk">
    <path d="M22.5 0C10.074 0 0 10.0736 0 22.5C0 34.9264 10.074 45 22.5 45C34.926 45 45 34.9264 45 22.5C45 10.0736 34.926 0 22.5 0ZM33.9132 24.9335C34.9619 25.9577 36.0714 26.9217 37.0128 28.0519C37.4299 28.5519 37.823 29.0688 38.1222 29.6503C38.5495 30.4794 38.1637 31.3886 37.4216 31.4379L32.812 31.4369C31.6215 31.5354 30.6741 31.0553 29.8754 30.2414C29.2378 29.5927 28.6462 28.8999 28.0321 28.2292C27.7812 27.9539 27.517 27.6947 27.2021 27.4907C26.5737 27.0819 26.0277 27.2072 25.6677 27.8636C25.3008 28.5316 25.217 29.2719 25.182 30.0153C25.1319 31.1022 24.8041 31.3863 23.7135 31.4374C21.3832 31.5465 19.1721 31.1929 17.117 30.0181C15.3041 28.9818 13.901 27.5193 12.6783 25.8634C10.2973 22.6353 8.47381 19.0924 6.8354 15.4478C6.46665 14.627 6.73642 14.1878 7.64194 14.1707C9.14639 14.1417 10.6508 14.1454 12.1553 14.1694C12.7676 14.179 13.1727 14.5294 13.4079 15.1071C14.2209 17.1074 15.2176 19.0105 16.4665 20.7755C16.7994 21.2455 17.1391 21.7142 17.623 22.0461C18.157 22.4125 18.5639 22.2915 18.8158 21.6953C18.9769 21.3164 19.0464 20.9113 19.0814 20.5053C19.2011 19.1145 19.2153 17.7242 19.0082 16.339C18.8793 15.4722 18.3918 14.9124 17.5277 14.7485C17.0876 14.6652 17.152 14.5022 17.3661 14.2508C17.7376 13.8163 18.0856 13.5474 18.7812 13.5474L23.9893 13.5465C24.8101 13.7076 24.9942 14.0759 25.1056 14.9027L25.1102 20.6903C25.1006 21.0103 25.2709 21.9586 25.8454 22.1681C26.3058 22.32 26.6096 21.9508 26.8849 21.6594C28.1339 20.334 29.0237 18.7697 29.8206 17.1506C30.1723 16.4366 30.4757 15.6978 30.7703 14.9575C30.9895 14.4101 31.3301 14.1408 31.9479 14.15L36.9631 14.156C37.1108 14.156 37.2609 14.1574 37.4073 14.1827C38.2525 14.3273 38.4841 14.6909 38.2226 15.5154C37.811 16.8109 37.0114 17.89 36.2297 18.9718C35.3919 20.1301 34.4983 21.2478 33.6687 22.4111C32.9064 23.4746 32.9667 24.01 33.9132 24.9335Z"/>
  </symbol>
  <symbol viewBox="0 0 45 45" id="ok">
    <path d="M19.279 14.9859C19.279 16.8409 20.7828 18.3449 22.6379 18.3449C24.4929 18.3449 25.9967 16.8409 25.9967 14.9859C25.9967 13.1309 24.4929 11.6271 22.6379 11.6271C20.7828 11.6271 19.279 13.1309 19.279 14.9859Z"/>
    <path fill-rule="evenodd" clip-rule="evenodd" d="M22.5 45C34.9264 45 45 34.9264 45 22.5C45 10.0736 34.9264 0 22.5 0C10.0736 0 0 10.0736 0 22.5C0 34.9264 10.0736 45 22.5 45ZM14.5125 14.9858C14.5125 10.4984 18.1503 6.86047 22.6379 6.86047C27.1254 6.86047 30.7632 10.4984 30.7632 14.9858C30.7632 19.4734 27.1254 23.1115 22.6379 23.1115C18.1503 23.1115 14.5125 19.4734 14.5125 14.9858ZM30.8117 27.291C30.7086 27.3737 28.7593 28.9142 25.5064 29.5769L30.4165 34.4432C31.28 35.3053 31.2811 36.7042 30.419 37.5677C29.5569 38.431 28.1583 38.4324 27.2945 37.5701L22.5276 32.928L18.1979 37.5402C17.7644 37.9899 17.1862 38.216 16.6074 38.216C16.0553 38.216 15.5027 38.0106 15.074 37.5972C14.1956 36.7502 14.1701 35.3516 15.0171 34.4733L19.6777 29.6025C16.3336 28.9555 14.3039 27.3749 14.1993 27.291C13.2475 26.5277 13.0946 25.1372 13.8579 24.1852C14.6212 23.2334 16.0115 23.0805 16.9636 23.8437C16.9837 23.86 19.1067 25.4549 22.5275 25.4572C25.9483 25.4549 28.0273 23.86 28.0474 23.8437C28.9995 23.0805 30.3899 23.2334 31.1531 24.1852C31.9165 25.1372 31.7636 26.5277 30.8117 27.291Z"/>
  </symbol>
</svg>
